<svg width="242" height="65" viewBox="0 0 242 65" fill="none" xmlns="http://www.w3.org/2000/svg"> <path d="M234.344 34.7015C229.767 34.7015 226.938 32.5395 226.938 29.8485H229.583C229.583 31.1365 231.354 32.3555 234.344 32.3555C237.794 32.3555 239.128 30.9295 239.128 29.2275C239.128 27.5255 237.794 26.3755 234.39 26.3755H227.467L228.203 18.3945H240.784V20.7635H230.526L230.204 24.1445H234.666C239.358 24.1445 241.819 26.1915 241.819 29.1815C241.819 32.4245 239.404 34.7015 234.344 34.7015Z" fill="black"></path> <path d="M218.453 34.7021C212.657 34.7021 210.518 31.3901 210.518 26.6981C210.518 21.9831 212.795 18.1191 218.752 18.1191C222.869 18.1191 225.307 20.0281 225.721 22.6041H223.007C222.777 21.3161 221.121 20.4651 218.752 20.4651C214.635 20.4651 213.232 22.9951 213.232 26.0311C214.313 24.6281 216.291 23.9841 218.752 23.9841C223.582 23.9841 225.997 26.4911 225.997 29.2281C225.997 32.2871 223.168 34.7021 218.453 34.7021ZM218.499 32.3561C221.627 32.3561 223.26 31.0451 223.26 29.2741C223.26 27.5261 221.65 26.1921 218.499 26.1921C215.256 26.1921 213.669 27.5261 213.669 29.2511C213.669 31.0451 215.348 32.3561 218.499 32.3561Z" fill="black"></path> <path d="M202.065 34.7021C197.58 34.7021 194.682 32.8621 194.682 29.7111H197.327C197.373 31.2291 198.983 32.3791 202.065 32.3791C205.055 32.3791 206.757 31.3211 206.757 29.8491C206.757 28.2621 204.894 27.2731 201.927 27.2731H199.742V24.9501H201.881C204.733 24.9501 206.044 24.0301 206.044 22.6271C206.044 21.4311 204.802 20.4421 201.996 20.4421C199.144 20.4421 197.81 21.5231 197.649 23.1331H194.981C195.211 20.0281 197.741 18.1191 202.088 18.1191C206.09 18.1191 208.804 19.8441 208.804 22.4431C208.804 24.4901 207.539 25.4561 206.228 25.9391C208.275 26.4681 209.517 27.9401 209.517 29.8031C209.517 32.4711 206.849 34.7021 202.065 34.7021Z" fill="black"></path> <path d="M180.03 34.7019C175.775 34.7019 173.429 33.1379 173.268 30.5389H175.89C176.189 32.0569 177.523 32.4479 180.145 32.4479C182.537 32.4479 183.756 31.9189 183.756 31.0449C183.756 30.4009 183.112 30.0099 181.203 29.7569L178.075 29.3659C175.43 29.0439 173.82 27.9859 173.82 26.0539C173.82 23.9149 176.005 22.4199 179.846 22.4199C184.055 22.4199 186.079 24.0299 186.079 26.3299H183.503C183.388 25.1799 182.123 24.5359 179.708 24.5359C177.615 24.5359 176.442 25.0189 176.442 25.8929C176.442 26.5599 177.063 26.9049 178.604 27.1119L181.801 27.5259C184.814 27.9399 186.424 28.9979 186.424 30.9069C186.424 33.3909 183.618 34.7019 180.03 34.7019Z" fill="black"></path> <path d="M163.855 34.702C160.06 34.702 158.059 33.023 158.059 30.792C158.059 28.745 159.6 27.181 162.981 27.181H168.892V26.905C168.892 25.801 168.179 24.858 165.511 24.858H159.6V22.627H165.626C169.743 22.627 171.491 24.467 171.491 26.813V34.495H168.915V33.184C168.041 34.058 166.316 34.702 163.855 34.702ZM164.246 32.517C167.489 32.517 168.892 31.321 168.892 29.872V29.251H163.096C161.601 29.251 160.704 29.757 160.704 30.769C160.704 31.85 161.693 32.517 164.246 32.517Z" fill="black"></path> <path d="M150.739 34.7019C146.484 34.7019 144.138 33.1379 143.977 30.5389H146.599C146.898 32.0569 148.232 32.4479 150.854 32.4479C153.246 32.4479 154.465 31.9189 154.465 31.0449C154.465 30.4009 153.821 30.0099 151.912 29.7569L148.784 29.3659C146.139 29.0439 144.529 27.9859 144.529 26.0539C144.529 23.9149 146.714 22.4199 150.555 22.4199C154.764 22.4199 156.788 24.0299 156.788 26.3299H154.212C154.097 25.1799 152.832 24.5359 150.417 24.5359C148.324 24.5359 147.151 25.0189 147.151 25.8929C147.151 26.5599 147.772 26.9049 149.313 27.1119L152.51 27.5259C155.523 27.9399 157.133 28.9979 157.133 30.9069C157.133 33.3909 154.327 34.7019 150.739 34.7019Z" fill="black"></path> <path d="M136.108 34.7019C131.255 34.7019 128.656 32.0109 128.656 28.5609C128.656 25.1569 131.002 22.4199 136.062 22.4199C140.685 22.4199 143.169 24.9959 143.169 28.2619V29.3659H131.416C131.439 31.2059 133.026 32.4939 136.108 32.4939C138.293 32.4939 139.857 31.8269 140.317 30.8839H142.939C142.479 33.0689 139.558 34.7019 136.108 34.7019ZM140.455 27.4799C140.409 25.9619 139.052 24.6509 136.062 24.6509C132.957 24.6509 131.669 26.0309 131.439 27.4799H140.455Z" fill="black"></path> <path d="M113.477 34.4949V22.6269H116.099V24.1679C116.881 23.2479 118.33 22.4199 120.998 22.4199C124.816 22.4199 126.955 24.1679 126.955 26.8359V34.4949H124.333V27.4799C124.333 25.8239 123.137 24.7889 120.354 24.7889C117.686 24.7889 116.099 25.8699 116.099 27.9399V34.4949H113.477Z" fill="black"></path> <path d="M104.481 34.7019C99.6281 34.7019 97.0291 32.0109 97.0291 28.5609C97.0291 25.1569 99.3751 22.4199 104.435 22.4199C109.058 22.4199 111.542 24.9959 111.542 28.2619V29.3659H99.7891C99.8121 31.2059 101.399 32.4939 104.481 32.4939C106.666 32.4939 108.23 31.8269 108.69 30.8839H111.312C110.852 33.0689 107.931 34.7019 104.481 34.7019ZM108.828 27.4799C108.782 25.9619 107.425 24.6509 104.435 24.6509C101.33 24.6509 100.042 26.0309 99.8121 27.4799H108.828Z" fill="black"></path> <path d="M79.4319 34.4945V18.3945H88.5399C93.1399 18.3945 95.4399 20.6255 95.4399 23.3625C95.4399 25.7315 93.9909 27.4565 91.2309 28.1235L96.6129 34.2645V34.4945H93.1859L88.0569 28.4225H82.1459V34.4945H79.4319ZM88.4019 25.9845C91.2539 25.9845 92.5879 24.9035 92.5879 23.3855C92.5879 21.8905 91.2539 20.8325 88.4019 20.8325H82.1459V25.9845H88.4019Z" fill="black"></path> <path d="M161.863 47.5062V42.9072H162.619V43.6272C162.898 43.2042 163.483 42.8262 164.527 42.8262C165.472 42.8262 166.165 43.1412 166.507 43.6902C166.804 43.2582 167.398 42.8262 168.559 42.8262C169.972 42.8262 170.836 43.4832 170.836 44.5182V47.5062H170.08V44.6352C170.08 43.9332 169.513 43.5012 168.46 43.5012C167.344 43.5012 166.732 44.0412 166.732 44.9682V47.5062H165.967V44.6352C165.967 43.9332 165.4 43.5012 164.347 43.5012C163.231 43.5012 162.619 44.0412 162.619 44.9682V47.5062H161.863Z" fill="black"></path> <path d="M157.839 47.5863C156.309 47.5863 155.508 46.8843 155.508 45.8313V42.9062H156.264V45.7143C156.264 46.4343 156.768 46.9113 157.974 46.9113C159.099 46.9113 159.756 46.4253 159.756 45.4443V42.9062H160.512V47.5053H159.756V46.7853C159.495 47.1723 158.955 47.5863 157.839 47.5863Z" fill="black"></path> <path d="M153.431 47.5053V42.9063H154.187V47.5053H153.431ZM153.368 41.9523V41.0703H154.25V41.9523H153.368Z" fill="black"></path> <path d="M151.551 47.5058C150.363 47.5058 150.021 46.9748 150.021 46.2098V43.5458H148.95V42.9068H150.021V41.6738H150.777V42.9068H152.352V43.5458H150.777V46.2098C150.777 46.6508 151.038 46.8398 151.623 46.8398H152.379V47.5058H151.551Z" fill="black"></path> <path d="M147.518 47.5057V40.8457H148.274V47.5057H147.518Z" fill="black"></path> <path d="M139.712 47.5051V47.4151L142.898 41.2051H143.735L146.93 47.4151V47.5051H146.129L145.292 45.8581H141.35L140.513 47.5051H139.712ZM141.701 45.1561H144.941L143.321 41.9611L141.701 45.1561Z" fill="black"></path> <path d="M132.621 49.5663V49.4763L133.836 47.3613L131.298 42.9963V42.9062H132.144L134.268 46.6413L136.365 42.9062H137.175V42.9963L133.431 49.5663H132.621Z" fill="black"></path> <path d="M128.536 47.5867C127.492 47.5867 126.889 47.2807 126.484 46.8307V47.5057H125.728V40.8457H126.484V43.6357C126.826 43.2307 127.492 42.8257 128.536 42.8257C130.408 42.8257 131.299 43.8427 131.299 45.2017C131.299 46.6867 130.237 47.5867 128.536 47.5867ZM128.509 46.9117C129.967 46.9117 130.534 46.1287 130.534 45.2017C130.534 44.2837 129.958 43.5007 128.509 43.5007C127.123 43.5007 126.484 44.2927 126.484 45.2017C126.484 46.1197 127.114 46.9117 128.509 46.9117Z" fill="black"></path> <path d="M118.858 47.5867C117.157 47.5867 116.113 46.6867 116.095 45.2017C116.077 43.8427 116.986 42.8257 118.858 42.8257C119.866 42.8257 120.568 43.2307 120.91 43.6357V40.8457H121.666V47.5057H120.91V46.8307C120.505 47.2807 119.866 47.5867 118.858 47.5867ZM118.885 46.9117C120.28 46.9117 120.91 46.1197 120.91 45.2017C120.91 44.2927 120.271 43.5007 118.885 43.5007C117.436 43.5007 116.86 44.2837 116.86 45.2017C116.86 46.1287 117.427 46.9117 118.885 46.9117Z" fill="black"></path> <path d="M113.077 47.5872C111.232 47.5872 110.269 46.5612 110.269 45.2112C110.269 43.8792 111.133 42.8262 113.068 42.8262C114.814 42.8262 115.732 43.8252 115.732 45.1032V45.4722H111.079C111.088 46.3272 111.781 46.9122 113.077 46.9122C113.968 46.9122 114.67 46.6602 114.868 46.1742H115.642C115.462 47.0292 114.292 47.5872 113.077 47.5872ZM114.94 44.8422C114.949 44.1132 114.355 43.5012 113.068 43.5012C111.736 43.5012 111.196 44.1222 111.088 44.8422H114.94Z" fill="black"></path> <path d="M106.97 47.5053V42.9062H107.726V43.7613C107.987 43.2483 108.635 42.9062 109.508 42.9062H110.048V43.6353H109.589C108.266 43.6353 107.726 44.1933 107.726 45.2733V47.5053H106.97Z" fill="black"></path> <path d="M103.413 47.5872C101.568 47.5872 100.605 46.5612 100.605 45.2112C100.605 43.8792 101.469 42.8262 103.404 42.8262C105.15 42.8262 106.068 43.8252 106.068 45.1032V45.4722H101.415C101.424 46.3272 102.117 46.9122 103.413 46.9122C104.304 46.9122 105.006 46.6602 105.204 46.1742H105.978C105.798 47.0292 104.628 47.5872 103.413 47.5872ZM105.276 44.8422C105.285 44.1132 104.691 43.5012 103.404 43.5012C102.072 43.5012 101.532 44.1222 101.424 44.8422H105.276Z" fill="black"></path> <path d="M93.9956 47.5053L91.9616 42.9963V42.9062H92.7446L94.3286 46.5603L95.9216 42.9062H96.5246L98.1266 46.5603L99.7106 42.9062H100.467V42.9963L98.4416 47.5053H97.8116L96.2366 43.8963L94.6256 47.5053H93.9956Z" fill="black"></path> <path d="M89.0456 47.5872C87.0746 47.5872 86.2646 46.5342 86.2646 45.2112C86.2646 43.8882 87.1016 42.8262 89.0456 42.8262C90.9896 42.8262 91.8266 43.8882 91.8266 45.2112C91.8266 46.5252 91.0166 47.5872 89.0456 47.5872ZM89.0456 46.9122C90.5306 46.9122 91.0616 46.2012 91.0616 45.2112C91.0616 44.2212 90.5306 43.5012 89.0456 43.5012C87.5606 43.5012 87.0296 44.2302 87.0296 45.2112C87.0296 46.2012 87.5786 46.9122 89.0456 46.9122Z" fill="black"></path> <path d="M79.953 47.5051V41.2051H82.941C84.741 41.2051 85.857 42.0241 85.857 43.1941C85.857 44.4001 84.723 45.2191 82.941 45.2191H80.745V47.5051H79.953ZM82.896 44.4991C84.246 44.4991 85.02 44.0401 85.02 43.1941C85.02 42.3841 84.201 41.9161 82.896 41.9161H80.745V44.4991H82.896Z" fill="black"></path> <path fill-rule="evenodd" clip-rule="evenodd" d="M47.1777 58.287C47.6798 58.7852 47.9061 59.492 47.7958 60.1872C47.6799 60.8824 47.2383 61.4816 46.6092 61.7972C42.3384 63.8442 37.5545 64.9996 32.5001 64.9996C14.5616 64.9996 0 50.4367 0 32.4998C0 30.5659 0.165611 28.6718 0.491165 26.8306C0.68429 25.7911 1.58917 25.0357 2.64308 25.0352C10.5005 25.0275 41.6599 25.0137 41.6599 25.0137C42.4489 25.0131 43.2048 25.3271 43.7676 25.8866C44.3249 26.446 44.6394 27.2047 44.6394 27.9959V28.0075C44.6394 28.7987 44.3249 29.5573 43.7676 30.1162C43.2103 30.6757 42.4489 30.9897 41.6599 30.9897H16.5148C16.123 30.9897 15.7479 31.1447 15.4775 31.4201C15.2016 31.6954 15.0416 32.0695 15.0416 32.459V46.8999C15.0416 47.7132 15.7037 48.3726 16.5148 48.3726H21.8397C22.2315 48.3726 22.6067 48.2164 22.8881 47.9383C23.164 47.6603 23.3184 47.2834 23.3184 46.89V40.6751C23.3184 40.2823 23.4784 39.9048 23.7543 39.6268C24.0357 39.3487 24.4109 39.1925 24.8026 39.1925H27.1092C27.7327 39.1925 28.3286 39.4414 28.7756 39.8833C28.7756 39.8833 41.9799 53.0889 47.1777 58.287Z" fill="#4046CA"></path> <path fill-rule="evenodd" clip-rule="evenodd" d="M8.00544 16.8212C7.18328 16.8218 6.43297 16.3605 6.05775 15.6278C5.68254 14.8951 5.74879 14.0139 6.22884 13.3463C12.155 5.2615 21.7174 0 32.4993 0C50.4379 0 64.9995 14.5629 64.9995 32.5003C64.9995 40.4797 62.1192 47.7909 57.3407 53.4497C56.9434 53.9132 56.3752 54.1907 55.7627 54.2144C55.1557 54.2387 54.5598 54.007 54.1294 53.576C50.2945 49.7458 40.9857 40.4405 40.9857 40.4405C40.776 40.2314 40.7155 39.9175 40.8313 39.6443C40.9417 39.3712 41.2064 39.193 41.5044 39.193H41.6975C47.8775 39.193 52.8822 34.1853 52.8822 28.0074V28.0052C52.8822 25.0384 51.7068 22.1931 49.6101 20.0953C47.5078 17.9975 44.6661 16.8196 41.6975 16.8196C41.6975 16.8196 17.6893 16.8207 8.00544 16.8212Z" fill="#686DF4"></path> </svg>